<svg width="27" height="27" viewBox="0 0 27 27" fill="none" xmlns="http://www.w3.org/2000/svg">
<path d="M13.3333 26.6667C11.4889 26.6667 9.75556 26.3167 8.13333 25.6167C6.51111 24.9167 5.1 23.9667 3.9 22.7667C2.7 21.5667 1.75 20.1556 1.05 18.5333C0.35 16.9111 0 15.1778 0 13.3333C0 11.4889 0.35 9.75556 1.05 8.13333C1.75 6.51111 2.7 5.1 3.9 3.9C5.1 2.7 6.51111 1.75 8.13333 1.05C9.75556 0.35 11.4889 0 13.3333 0C15.1778 0 16.9111 0.35 18.5333 1.05C20.1556 1.75 21.5667 2.7 22.7667 3.9C23.9667 5.1 24.9167 6.51111 25.6167 8.13333C26.3167 9.75556 26.6667 11.4889 26.6667 13.3333V24C26.6667 24.7333 26.4056 25.3611 25.8833 25.8833C25.3611 26.4056 24.7333 26.6667 24 26.6667H13.3333ZM13.3333 24C16.3111 24 18.8333 22.9667 20.9 20.9C22.9667 18.8333 24 16.3111 24 13.3333C24 10.3556 22.9667 7.83333 20.9 5.76667C18.8333 3.7 16.3111 2.66667 13.3333 2.66667C10.3556 2.66667 7.83333 3.7 5.76667 5.76667C3.7 7.83333 2.66667 10.3556 2.66667 13.3333C2.66667 13.8444 2.7 14.3444 2.76667 14.8333C2.83333 15.3222 2.93333 15.8 3.06667 16.2667L8 11.3333L12.4 15.0333L16.7667 10.6667H14.6667V8H21.3333V14.6667H18.6667V12.5667L12.5333 18.6667L8.16667 14.9333L4.23333 18.8667C5.16667 20.4 6.42778 21.6389 8.01667 22.5833C9.60556 23.5278 11.3778 24 13.3333 24ZM23.3333 24.6667C23.7111 24.6667 24.0278 24.5389 24.2833 24.2833C24.5389 24.0278 24.6667 23.7111 24.6667 23.3333C24.6667 22.9556 24.5389 22.6389 24.2833 22.3833C24.0278 22.1278 23.7111 22 23.3333 22C22.9556 22 22.6389 22.1278 22.3833 22.3833C22.1278 22.6389 22 22.9556 22 23.3333C22 23.7111 22.1278 24.0278 22.3833 24.2833C22.6389 24.5389 22.9556 24.6667 23.3333 24.6667Z" fill="white"/>
</svg>
