<svg width="32" height="22" viewBox="0 0 32 22" fill="none" xmlns="http://www.w3.org/2000/svg">
<path d="M21.2929 17.4467H27.4467V11.2929H25.6625V15.6625H21.2929V17.4467ZM15.8325 15.2138C17.0461 15.2138 18.0815 14.7872 18.9388 13.9342C19.7957 13.0814 20.2242 12.0481 20.2242 10.8342C20.2242 9.62056 19.7951 8.58514 18.9371 7.72792C18.079 6.87097 17.0431 6.4425 15.8292 6.4425C14.6156 6.4425 13.5828 6.87153 12.7308 7.72958C11.8789 8.58764 11.4529 9.62361 11.4529 10.8375C11.4529 12.0511 11.8794 13.0839 12.7325 13.9358C13.5853 14.7878 14.6186 15.2138 15.8325 15.2138ZM4.22 10.47H6.00417V6.10042H10.3738V4.31625H4.22V10.47ZM0 21.6667V0H31.6667V21.6667H0ZM2.09417 19.5725H29.5725V2.09417H2.09417V19.5725Z" fill="white"/>
</svg>
