<svg width="20" height="20" viewBox="0 0 20 20" fill="none" xmlns="http://www.w3.org/2000/svg">
<g clip-path="url(#clip0_426_436)">
<path d="M9.87012 -0.264648C10.2121 -0.264581 10.5445 -0.157734 10.8213 0.0390625L10.9365 0.128906L10.9424 0.133789C12.3271 1.34436 14.2517 2.23633 15.7031 2.23633C16.1009 2.23633 16.4824 2.39448 16.7637 2.67578C17.0449 2.95707 17.2031 3.33857 17.2031 3.73633V9.56934C17.2031 11.8287 16.4043 13.5575 15.1221 14.873C13.8579 16.17 12.1531 17.0364 10.3721 17.6572L10.3672 17.6592C10.0453 17.7683 9.69635 17.7637 9.37695 17.6484V17.6494C9.3753 17.6488 9.37373 17.648 9.37207 17.6475C9.36888 17.6463 9.36548 17.6457 9.3623 17.6445V17.6436C7.58225 17.0273 5.88111 16.1654 4.61914 14.873C3.3354 13.5583 2.53613 11.8287 2.53613 9.56934V3.73633C2.53613 3.33864 2.69447 2.95706 2.97559 2.67578C3.25681 2.39455 3.63842 2.23641 4.03613 2.23633C5.48706 2.23633 7.42086 1.33668 8.79785 0.133789L8.80371 0.128906C9.10092 -0.124894 9.47928 -0.264648 9.87012 -0.264648ZM9.87012 1.06934C9.79686 1.06934 9.72569 1.0951 9.66992 1.14258L9.66895 1.1416C8.14606 2.47001 5.9164 3.56934 4.03613 3.56934C3.99214 3.56942 3.95011 3.5871 3.91895 3.61816C3.88769 3.64942 3.87012 3.69213 3.87012 3.73633V9.56934C3.87012 11.4766 4.5299 12.8728 5.57324 13.9414C6.50197 14.8924 7.75759 15.6067 9.18848 16.1611L9.8125 16.3896L9.82715 16.3945C9.86285 16.4078 9.90236 16.4086 9.93848 16.3965C11.6221 15.8091 13.1071 15.0297 14.167 13.9424C15.2097 12.8726 15.8701 11.4766 15.8701 9.56934V3.73633C15.8701 3.69219 15.8525 3.64941 15.8213 3.61816C15.79 3.58691 15.7473 3.56934 15.7031 3.56934C13.8235 3.56934 11.6021 2.4797 10.0703 1.14258L10.0254 1.11133C9.97853 1.08392 9.92504 1.06939 9.87012 1.06934ZM12.0322 7.86426C12.2926 7.60391 12.7152 7.60391 12.9756 7.86426C13.2359 8.12461 13.2359 8.54727 12.9756 8.80762L9.6416 12.1406C9.38124 12.4008 8.95951 12.4009 8.69922 12.1406L7.03223 10.4736C6.77226 10.2133 6.77215 9.7915 7.03223 9.53125C7.29258 9.2709 7.71524 9.2709 7.97559 9.53125L9.16992 10.7266L12.0322 7.86426Z" fill="#1D192F"/>
</g>
<defs>
<clipPath id="clip0_426_436">
<rect width="20" height="20" fill="white"/>
</clipPath>
</defs>
</svg>
