<svg width="21" height="21" viewBox="0 0 21 21" fill="none" xmlns="http://www.w3.org/2000/svg">
<path d="M10.4262 7.44465C13.7164 7.44465 16.3836 6.44443 16.3836 5.21061C16.3836 3.97678 13.7164 2.97656 10.4262 2.97656C7.13599 2.97656 4.46875 3.97678 4.46875 5.21061C4.46875 6.44443 7.13599 7.44465 10.4262 7.44465Z" stroke="#D15120" stroke-width="1.11702"/>
<path d="M6.70312 9.5625C7.15111 9.69721 7.6521 9.8081 8.19249 9.89016" stroke="#D15120" stroke-width="1.11702" stroke-linecap="round"/>
<path d="M16.3836 10.4297C16.3836 11.6635 13.7164 12.6637 10.4262 12.6637C7.13599 12.6637 4.46875 11.6635 4.46875 10.4297" stroke="#D15120" stroke-width="1.11702"/>
<path d="M6.70312 14.7812C7.15111 14.916 7.6521 15.0268 8.19249 15.1089" stroke="#D15120" stroke-width="1.11702" stroke-linecap="round"/>
<path d="M16.3836 5.21875V15.6443C16.3836 16.8781 13.7164 17.8783 10.4262 17.8783C7.13599 17.8783 4.46875 16.8781 4.46875 15.6443V5.21875" stroke="#D15120" stroke-width="1.11702"/>
</svg>
