<svg width="24" height="24" viewBox="0 0 24 24" fill="none" xmlns="http://www.w3.org/2000/svg">
<mask id="mask0_802_490" style="mask-type:alpha" maskUnits="userSpaceOnUse" x="0" y="0" width="24" height="24">
<rect width="24" height="24" fill="#D9D9D9"/>
</mask>
<g mask="url(#mask0_802_490)">
<path d="M12 16.7115C12.2288 16.7115 12.4207 16.6333 12.5755 16.477C12.7303 16.3205 12.8077 16.1294 12.8077 15.9038C12.8077 15.6783 12.7303 15.4873 12.5755 15.3308C12.4207 15.1744 12.2288 15.0963 12 15.0963C11.7712 15.0963 11.5793 15.1744 11.4245 15.3308C11.2697 15.4873 11.1923 15.6783 11.1923 15.9038C11.1923 16.1294 11.2697 16.3205 11.4245 16.477C11.5793 16.6333 11.7712 16.7115 12 16.7115ZM11.25 13.2308H12.75V7.19225H11.25V13.2308ZM8.4615 20.5L3.5 15.543V8.4615L8.457 3.5H15.5385L20.5 8.457V15.5385L15.543 20.5H8.4615ZM9.1 19H14.9L19 14.9V9.1L14.9 5H9.1L5 9.1V14.9L9.1 19Z" fill="url(#paint0_linear_802_490)"/>
</g>
<defs>
<linearGradient id="paint0_linear_802_490" x1="12" y1="3.5" x2="12" y2="20.5" gradientUnits="userSpaceOnUse">
<stop stop-color="#FF00A6"/>
<stop offset="1" stop-color="#8B005B"/>
</linearGradient>
</defs>
</svg>
